<svg width="80" height="80" viewBox="0 0 80 80" fill="none" xmlns="http://www.w3.org/2000/svg">
<path fill-rule="evenodd" clip-rule="evenodd" d="M53.1729 22.5455C53.1185 22.3107 53.0621 22.0754 53.0031 21.8399C52.2351 18.7677 51.0257 15.4293 49.0537 12.8C47.0202 10.0888 44.0512 8 39.9991 8C35.9471 8 32.978 10.0888 30.9445 12.8C28.9726 15.4293 27.7631 18.7677 26.995 21.8399C26.9362 22.0754 26.8796 22.3107 26.8252 22.5455H22.1696C17.575 22.5455 13.7673 26.1078 13.4617 30.6922L11.3283 62.6921C10.9925 67.7295 14.9879 72 20.0363 72H59.9619C65.0103 72 69.0057 67.7295 68.67 62.6921L66.5364 30.6922C66.231 26.1078 62.4233 22.5455 57.8287 22.5455H53.1729ZM28.3628 37.0909C30.0296 37.0909 31.2662 35.8353 31.2719 34.1765C31.2723 34.1073 31.2731 34.0381 31.2743 33.9689C31.2769 33.8157 31.2821 33.5841 31.2927 33.2856C31.3141 32.6881 31.3571 31.8254 31.4436 30.787C31.505 30.0502 31.5877 29.2323 31.6987 28.3636H48.2996C48.4105 29.2323 48.4931 30.0502 48.5548 30.7871C48.6412 31.8254 48.6842 32.6881 48.7055 33.2856C48.7162 33.5841 48.7215 33.8157 48.7241 33.9689C48.7252 34.0403 48.7261 34.1116 48.7264 34.183C48.7264 34.183 48.7264 37.0909 51.6355 37.0909C54.5446 37.0909 54.5446 34.1779 54.5446 34.1779C54.5443 34.0759 54.5431 33.9739 54.5414 33.872C54.5382 33.6844 54.5321 33.4159 54.5199 33.078C54.496 32.4029 54.448 31.4473 54.3526 30.3039C54.3031 29.7077 54.24 29.0563 54.1603 28.3636H57.8287C59.3603 28.3636 60.6295 29.5511 60.7313 31.0792L62.8646 63.0793C62.9766 64.7584 61.6448 66.1818 59.9619 66.1818H20.0363C18.3535 66.1818 17.0217 64.7584 17.1336 63.0793L19.267 31.0792C19.3688 29.5511 20.6381 28.3636 22.1696 28.3636H25.8379C25.7581 29.0563 25.6952 29.7077 25.6455 30.3039C25.5502 31.4473 25.5024 32.4029 25.4782 33.078C25.4662 33.4159 25.46 33.6844 25.4569 33.872C25.4552 33.9719 25.454 34.0719 25.4537 34.1719C25.4515 35.8319 26.6997 37.0909 28.3628 37.0909ZM32.8239 22.5455H47.1744C46.5018 20.0821 45.5875 17.8754 44.3991 16.2909C43.1599 14.6385 41.7652 13.8182 39.9991 13.8182C38.233 13.8182 36.8384 14.6385 35.5991 16.2909C34.4108 17.8754 33.4965 20.0821 32.8239 22.5455Z" />
<style>path { fill: #101010; } @media (prefers-color-scheme: dark) { path { fill: #F2F2F2; } }</style>
</svg>
