<svg width="1280" height="225" viewBox="0 0 1280 225" fill="none" xmlns="http://www.w3.org/2000/svg">
<g clip-path="url(#clip0_3016_4091)">
<path d="M0 20C0 8.9543 8.95431 0 20 0H1260C1271.05 0 1280 8.95431 1280 20V205C1280 216.046 1271.05 225 1260 225H20C8.95431 225 0 216.046 0 205V20Z" fill="#0F1832"/>
<g filter="url(#filter0_f_3016_4091)">
<path d="M1062.46 53.6321C670.717 -179.405 333.235 -43.4902 213.463 53.5969C183.817 175.462 464.053 266.45 607.877 296.712C922.634 312.784 1454.21 286.669 1062.46 53.6321Z" fill="#0231FF" fill-opacity="0.7"/>
</g>
<g filter="url(#filter1_f_3016_4091)">
<path d="M922.306 350.119C777.53 493.098 831.106 686.374 875.992 765.14C875.992 894.685 1324.56 863.498 1504.67 765.14C1684.78 666.783 1609.31 521.645 1615.31 350.119C1620.12 212.898 1423.48 168.198 1324.56 163C1250.8 165.799 1067.08 207.141 922.306 350.119Z" fill="#6C01DB"/>
</g>
<path d="M-863.165 -544.181C-859.655 -577.9 -823.242 -597.454 -793.194 -581.753L1716.64 729.65C1750.79 747.489 1751.06 796.256 1717.12 814.481L-1085.92 2319.65C-1119.86 2337.88 -1160.36 2310.71 -1156.37 2272.39L-863.165 -544.181Z" fill="#6F5AC8" fill-opacity="0.1"/>
<path d="M-863.165 -624.181C-859.655 -657.9 -823.242 -677.454 -793.194 -661.753L1716.64 649.65C1750.79 667.489 1751.06 716.256 1717.12 734.481L-1085.92 2239.65C-1119.86 2257.88 -1160.36 2230.71 -1156.37 2192.39L-863.165 -624.181Z" fill="#6F5AC8" fill-opacity="0.1"/>
<path d="M-863.165 -700.181C-859.655 -733.9 -823.242 -753.454 -793.194 -737.753L1716.64 573.65C1750.79 591.489 1751.06 640.256 1717.12 658.481L-1085.92 2163.65C-1119.86 2181.88 -1160.36 2154.71 -1156.37 2116.39L-863.165 -700.181Z" fill="#6F5AC8" fill-opacity="0.1"/>
<path d="M-863.165 -775.181C-859.655 -808.9 -823.242 -828.454 -793.194 -812.753L1716.64 498.65C1750.79 516.489 1751.06 565.256 1717.12 583.481L-1085.92 2088.65C-1119.86 2106.88 -1160.36 2079.71 -1156.37 2041.39L-863.165 -775.181Z" fill="#6F5AC8" fill-opacity="0.1"/>
<path d="M-863.165 -850.181C-859.655 -883.9 -823.242 -903.454 -793.194 -887.753L1716.64 423.65C1750.79 441.489 1751.06 490.256 1717.12 508.481L-1085.92 2013.65C-1119.86 2031.88 -1160.36 2004.71 -1156.37 1966.39L-863.165 -850.181Z" fill="#6F5AC8" fill-opacity="0.1"/>
<path d="M-724.802 -850.181C-721.291 -883.9 -684.878 -903.454 -654.831 -887.753L1855.01 423.65C1889.15 441.489 1889.42 490.256 1855.49 508.481L-947.554 2013.65C-981.493 2031.88 -1021.99 2004.71 -1018 1966.39L-724.802 -850.181Z" fill="#6F5AC8" fill-opacity="0.1"/>
<g filter="url(#filter2_f_3016_4091)">
<circle cx="-183" cy="-183" r="367" fill="#031150"/>
</g>
<g clip-path="url(#clip1_3016_4091)">
<path d="M1040.13 46.1648C1038.98 43.5466 1036.75 44.9284 1035.4 46.7466L1033.49 50.0557L1046.18 72.0011H1055L1040.13 46.1648Z" fill="url(#paint0_linear_3016_4091)"/>
<path d="M1024.13 42.8177C1022 40.2359 1017.87 39.2905 1014.78 40.7814C1013.29 41.4723 1012.05 42.545 1011.18 44.0359C1011.18 44.0541 995 71.9996 995 71.9996H1004.05L1018.09 48.0177L1019.25 45.9995C1019.47 45.6359 1021.93 41.5086 1024.13 42.8177Z" fill="url(#paint1_linear_3016_4091)"/>
<path d="M1013.84 67.4736C1014.33 68.2554 1018.11 75.1282 1018.67 75.6009C1020.96 76.6009 1022.53 72.7463 1023.49 71.2373L1017.64 61.0918L1013.84 67.4736Z" fill="url(#paint2_linear_3016_4091)"/>
<path d="M1031.96 61.0918L1025.33 72.6009C1025.33 72.6009 1022.47 78.6918 1019.87 77.5463C1021.31 79.1645 1023.44 80.0736 1025.6 80.0009C1028.09 79.8918 1030.38 78.5463 1031.65 76.3463L1036.27 68.3282C1036.22 68.2373 1032.02 61.1645 1031.96 61.0918Z" fill="url(#paint3_linear_3016_4091)"/>
<path d="M1037.8 42.6002C1035.47 39.8911 1031.24 39.182 1028.18 41.0365C1025.29 42.4911 1022.4 49.5456 1020.62 52.1275C1020.65 52.2002 1025.04 59.7638 1025.07 59.8365C1026.71 57.0002 1030.45 50.5093 1032.05 47.7456C1033.16 45.9275 1035.07 41.2911 1037.8 42.6002Z" fill="url(#paint4_linear_3016_4091)"/>
<path d="M1024.76 44.8543C1023.15 47.4361 1021.67 50.5997 1020.62 52.127L1019.38 49.9997C1020.16 48.5452 1022.62 44.0361 1024.76 44.8543Z" fill="url(#paint5_linear_3016_4091)"/>
<path d="M1085.45 54.3095C1084.31 54.2913 1083.18 54.5459 1082.16 55.055C1081.15 55.5641 1080.25 56.3277 1079.6 57.255C1078.96 56.3277 1078.09 55.5822 1077.09 55.0731C1076.09 54.564 1074.96 54.3095 1073.84 54.3277C1069.35 54.3277 1066.29 57.9459 1066.29 63.3095V71.9822H1069.75V63.3095C1069.75 59.8186 1071.29 57.7459 1073.87 57.7459C1076.45 57.7459 1077.93 59.8913 1077.93 63.3095V71.9822H1081.2V63.3095C1081.2 59.8186 1082.75 57.7459 1085.35 57.7459C1087.95 57.7459 1089.38 59.8913 1089.38 63.3095V71.9822H1092.84V63.3095C1092.85 57.9277 1089.89 54.3095 1085.45 54.3095Z" fill="white"/>
<path d="M1103.62 54.0195C1098.64 54.0195 1095 57.8014 1095 63.0014C1095 68.2014 1098.62 71.9832 1103.62 71.9832C1108.62 71.9832 1112.24 68.2014 1112.24 63.0014C1112.24 57.8014 1108.58 54.0195 1103.62 54.0195ZM1103.62 68.565C1100.56 68.565 1098.44 66.2923 1098.44 63.0014C1098.44 59.7104 1100.51 57.4377 1103.62 57.4377C1106.71 57.4377 1108.76 59.6741 1108.76 63.0014C1108.76 66.3286 1106.64 68.565 1103.62 68.565Z" fill="white"/>
<path d="M1122.4 54.3105C1117.87 54.3105 1114.46 58.1651 1114.46 63.2924V71.9651H1117.91V63.2924C1117.91 60.0742 1119.76 57.7287 1122.42 57.7287C1125.07 57.7287 1126.82 60.0742 1126.82 63.2924V71.9651H1130.27V63.2924C1130.31 58.1833 1126.91 54.3105 1122.4 54.3105Z" fill="white"/>
<path d="M1141 54.0195C1136.02 54.0195 1132.38 57.8014 1132.38 63.0014C1132.38 68.2014 1136 72.0014 1141 72.0014C1146 72.0014 1149.56 68.2195 1149.56 63.0195C1149.56 57.8195 1145.96 54.0195 1141 54.0195ZM1141 68.565C1137.95 68.565 1135.82 66.2923 1135.82 63.0014C1135.82 59.7104 1137.91 57.4377 1141 57.4377C1144.09 57.4377 1146.15 59.6741 1146.15 63.0014C1146.15 66.3286 1144.04 68.565 1141 68.565Z" fill="white"/>
<path d="M1160.51 68.5273C1159.8 68.5273 1159.09 68.4 1158.44 68.1091C1157.78 67.8364 1157.18 67.4182 1156.69 66.9091C1156.2 66.4 1155.82 65.7819 1155.56 65.1091C1155.31 64.4364 1155.22 63.7273 1155.26 63.0182C1155.22 62.3091 1155.31 61.6 1155.56 60.9273C1155.82 60.2546 1156.18 59.6364 1156.69 59.1273C1157.18 58.6182 1157.78 58.2 1158.44 57.9273C1159.09 57.6546 1159.8 57.5091 1160.51 57.5091C1161.55 57.4364 1162.58 57.7091 1163.44 58.2909C1164.29 58.8728 1164.95 59.7273 1165.26 60.7091H1168.8C1168.46 58.8 1167.42 57.0728 1165.89 55.8728C1164.36 54.6728 1162.46 54.0546 1160.51 54.1455C1159.35 54.1273 1158.2 54.3455 1157.11 54.8C1156.04 55.2364 1155.06 55.9091 1154.26 56.7455C1153.46 57.5819 1152.82 58.5637 1152.4 59.6546C1151.98 60.7455 1151.8 61.8909 1151.86 63.0546C1151.82 64.2182 1152 65.3637 1152.42 66.4546C1152.84 67.5273 1153.46 68.5273 1154.27 69.3455C1155.07 70.1819 1156.06 70.8364 1157.13 71.291C1158.2 71.7455 1159.35 71.9637 1160.51 71.9637C1162.51 72.0364 1164.46 71.3819 1165.98 70.1091C1167.53 68.8364 1168.55 67.0546 1168.86 65.091H1165.35C1165.06 66.1273 1164.42 67.0364 1163.55 67.6728C1162.66 68.2728 1161.6 68.5819 1160.51 68.5273Z" fill="white"/>
<path d="M1174.45 48.3457H1171.18V71.8003H1174.45V48.3457Z" fill="white"/>
<path d="M1185.33 54.0195C1180.35 54.0195 1176.71 57.8014 1176.71 63.0014C1176.71 68.2014 1180.33 71.9832 1185.33 71.9832C1190.33 71.9832 1193.89 68.2014 1193.89 63.0014C1193.89 57.8014 1190.29 54.0195 1185.33 54.0195ZM1185.33 68.565C1182.27 68.565 1180.15 66.2923 1180.15 63.0014C1180.15 59.7104 1182.22 57.4377 1185.33 57.4377C1188.42 57.4377 1190.53 59.6923 1190.53 63.0014C1190.53 66.3104 1188.36 68.565 1185.33 68.565Z" fill="white"/>
<path d="M1208.64 63.0184C1208.64 66.2366 1206.69 68.5821 1204.15 68.5821C1201.6 68.5821 1199.55 66.2548 1199.55 63.0184V54.3457H1196.09V63.0184C1196.09 68.1275 1199.53 72.0003 1204.07 72.0003C1208.64 72.0003 1211.91 68.1275 1211.91 63.0184V54.3457H1208.64V63.0184Z" fill="white"/>
<path d="M1227.91 47.9824V55.9642C1226.42 54.637 1224.49 53.8915 1222.47 53.9097C1217.65 53.9097 1214.04 57.7642 1214.04 62.8915C1214.04 68.0188 1217.67 71.8733 1222.67 71.8733C1227.67 71.8733 1231.36 68.0915 1231.36 62.8915V47.9824H1227.91ZM1222.65 68.5642C1219.13 68.5642 1217.51 65.6915 1217.51 63.0006C1217.45 62.2915 1217.55 61.5824 1217.78 60.9097C1218.02 60.237 1218.38 59.6188 1218.87 59.0915C1219.36 58.5642 1219.95 58.1461 1220.6 57.8733C1221.25 57.5824 1221.96 57.437 1222.67 57.437C1223.38 57.437 1224.09 57.5824 1224.75 57.8733C1225.4 58.1642 1225.98 58.5824 1226.47 59.0915C1226.96 59.6188 1227.33 60.237 1227.56 60.9097C1227.8 61.5824 1227.89 62.2915 1227.84 63.0006C1227.84 65.7642 1226.24 68.5642 1222.65 68.5642Z" fill="white"/>
</g>
<path d="M87.999 53.5C91.8537 53.5 94.6876 55.4788 96.6533 58.0996C98.5677 60.652 99.7566 63.9169 100.518 66.9609L100.519 66.9619C100.577 67.1939 100.632 67.4262 100.686 67.6582L100.775 68.0459H105.829C110.16 68.0461 113.749 71.404 114.037 75.7256L116.171 107.726C116.487 112.474 112.721 116.5 107.962 116.5H68.0361C63.2771 116.5 59.5107 112.474 59.8271 107.726L61.9609 75.7256C62.2491 71.4038 65.8386 68.0459 70.1699 68.0459H75.2227L75.3125 67.6582C75.3663 67.4262 75.4223 67.1935 75.4805 66.9609C76.2415 63.9169 77.4305 60.652 79.3447 58.0996C81.3104 55.4788 84.1443 53.5 87.999 53.5ZM70.1699 72.8633C68.3752 72.8633 66.888 74.2551 66.7686 76.0459L64.6348 108.046C64.5036 110.014 66.0642 111.682 68.0361 111.682H107.962C109.934 111.682 111.495 110.014 111.363 108.046L109.23 76.0459C109.111 74.2553 107.624 72.8635 105.829 72.8633H101.6L101.663 73.4209C101.742 74.1079 101.805 74.7537 101.854 75.3447V75.3457C101.902 75.9129 101.937 76.4333 101.964 76.8955L102.021 78.0957C102.033 78.43 102.038 78.696 102.041 78.8809L102.045 79.1797C102.045 79.1827 102.044 79.1878 102.044 79.1943C102.043 79.2098 102.042 79.2347 102.04 79.2676C102.035 79.3339 102.026 79.4319 102.006 79.5508C101.966 79.7912 101.887 80.1043 101.733 80.4111C101.581 80.7158 101.361 81.0053 101.04 81.2197C100.722 81.432 100.275 81.5908 99.6357 81.5908C98.9959 81.5908 98.5486 81.4327 98.2305 81.2207C97.9094 81.0067 97.6892 80.7172 97.5371 80.4131C97.384 80.107 97.3046 79.7945 97.2646 79.5547C97.2449 79.4362 97.2352 79.3386 97.2305 79.2725C97.2281 79.2396 97.2271 79.2146 97.2266 79.1992V79.1807L97.2236 78.9609V78.96C97.221 78.8039 97.216 78.5693 97.2051 78.2676C97.1836 77.6633 97.1399 76.7923 97.0527 75.7451C96.9906 75.0022 96.9077 74.1773 96.7959 73.3008L96.7402 72.8633H79.2588L79.2031 73.2998C79.0911 74.1764 79.0072 75.002 78.9453 75.7451C78.858 76.7924 78.8145 77.6633 78.793 78.2676C78.7822 78.5695 78.777 78.8047 78.7744 78.9609C78.7732 79.0316 78.7719 79.1029 78.7715 79.1738V79.1748C78.7667 80.5625 77.7493 81.5908 76.3623 81.5908C74.978 81.5906 73.9529 80.5583 73.9541 79.1738C73.9544 79.077 73.9554 78.9793 73.957 78.8809V78.8799C73.9601 78.6953 73.9656 78.4299 73.9775 78.0957C74.0014 77.4273 74.0491 76.4799 74.1436 75.3457C74.1928 74.7543 74.2558 74.1079 74.335 73.4209L74.3984 72.8633H70.1699ZM87.999 58.3184C86.0381 58.3184 84.5079 59.2463 83.1992 60.9912C81.9573 62.6471 81.0222 64.922 80.3418 67.4141L80.1689 68.0459H95.8291L95.6572 67.4141C94.9768 64.9219 94.0408 62.6471 92.7988 60.9912C91.4901 59.2462 89.96 58.3184 87.999 58.3184Z" fill="#F1F1F1" stroke="#25286B"/>
<path d="M50.8764 147.818H55.6705L64.0057 168.17H64.3125L72.6477 147.818H77.4418V174H73.6832V155.054H73.4403L65.7188 173.962H62.5994L54.8778 155.041H54.6349V174H50.8764V147.818ZM91.1495 174.396C89.3086 174.396 87.7021 173.974 86.3299 173.131C84.9577 172.287 83.8924 171.107 83.1339 169.589C82.3754 168.072 81.9961 166.3 81.9961 164.271C81.9961 162.234 82.3754 160.453 83.1339 158.928C83.8924 157.402 84.9577 156.217 86.3299 155.374C87.7021 154.53 89.3086 154.108 91.1495 154.108C92.9904 154.108 94.5969 154.53 95.9691 155.374C97.3413 156.217 98.4066 157.402 99.1651 158.928C99.9237 160.453 100.303 162.234 100.303 164.271C100.303 166.3 99.9237 168.072 99.1651 169.589C98.4066 171.107 97.3413 172.287 95.9691 173.131C94.5969 173.974 92.9904 174.396 91.1495 174.396ZM91.1623 171.188C92.3555 171.188 93.3441 170.872 94.1282 170.241C94.9123 169.611 95.4918 168.771 95.8668 167.723C96.2504 166.675 96.4421 165.52 96.4421 164.259C96.4421 163.006 96.2504 161.855 95.8668 160.807C95.4918 159.75 94.9123 158.902 94.1282 158.263C93.3441 157.624 92.3555 157.304 91.1623 157.304C89.9606 157.304 88.9634 157.624 88.1708 158.263C87.3867 158.902 86.8029 159.75 86.4194 160.807C86.0444 161.855 85.8569 163.006 85.8569 164.259C85.8569 165.52 86.0444 166.675 86.4194 167.723C86.8029 168.771 87.3867 169.611 88.1708 170.241C88.9634 170.872 89.9606 171.188 91.1623 171.188ZM108.392 162.341V174H104.57V154.364H108.239V157.56H108.482C108.933 156.52 109.641 155.685 110.604 155.054C111.575 154.423 112.798 154.108 114.273 154.108C115.611 154.108 116.783 154.389 117.788 154.952C118.794 155.506 119.574 156.332 120.128 157.432C120.682 158.531 120.959 159.891 120.959 161.51V174H117.136V161.97C117.136 160.547 116.766 159.435 116.024 158.634C115.283 157.824 114.264 157.419 112.969 157.419C112.082 157.419 111.294 157.611 110.604 157.994C109.922 158.378 109.381 158.94 108.98 159.682C108.588 160.415 108.392 161.301 108.392 162.341ZM134.357 174.396C132.516 174.396 130.909 173.974 129.537 173.131C128.165 172.287 127.099 171.107 126.341 169.589C125.582 168.072 125.203 166.3 125.203 164.271C125.203 162.234 125.582 160.453 126.341 158.928C127.099 157.402 128.165 156.217 129.537 155.374C130.909 154.53 132.516 154.108 134.357 154.108C136.197 154.108 137.804 154.53 139.176 155.374C140.548 156.217 141.614 157.402 142.372 158.928C143.131 160.453 143.51 162.234 143.51 164.271C143.51 166.3 143.131 168.072 142.372 169.589C141.614 171.107 140.548 172.287 139.176 173.131C137.804 173.974 136.197 174.396 134.357 174.396ZM134.369 171.188C135.563 171.188 136.551 170.872 137.335 170.241C138.119 169.611 138.699 168.771 139.074 167.723C139.457 166.675 139.649 165.52 139.649 164.259C139.649 163.006 139.457 161.855 139.074 160.807C138.699 159.75 138.119 158.902 137.335 158.263C136.551 157.624 135.563 157.304 134.369 157.304C133.168 157.304 132.17 157.624 131.378 158.263C130.594 158.902 130.01 159.75 129.626 160.807C129.251 161.855 129.064 163.006 129.064 164.259C129.064 165.52 129.251 166.675 129.626 167.723C130.01 168.771 130.594 169.611 131.378 170.241C132.17 170.872 133.168 171.188 134.369 171.188ZM162.363 154.696C162.227 153.486 161.664 152.548 160.676 151.884C159.687 151.21 158.443 150.874 156.943 150.874C155.869 150.874 154.94 151.044 154.156 151.385C153.372 151.717 152.762 152.178 152.328 152.766C151.902 153.345 151.689 154.006 151.689 154.747C151.689 155.369 151.833 155.906 152.123 156.358C152.422 156.81 152.809 157.189 153.287 157.496C153.772 157.794 154.292 158.045 154.846 158.25C155.4 158.446 155.933 158.608 156.444 158.736L159.001 159.401C159.836 159.605 160.693 159.882 161.571 160.232C162.449 160.581 163.262 161.041 164.012 161.612C164.762 162.183 165.368 162.891 165.828 163.734C166.297 164.578 166.531 165.588 166.531 166.764C166.531 168.247 166.147 169.564 165.38 170.714C164.622 171.865 163.518 172.773 162.069 173.438C160.629 174.102 158.886 174.435 156.841 174.435C154.88 174.435 153.184 174.124 151.752 173.501C150.321 172.879 149.2 171.997 148.39 170.855C147.581 169.705 147.133 168.341 147.048 166.764H151.011C151.088 167.71 151.395 168.499 151.931 169.129C152.477 169.751 153.172 170.216 154.015 170.523C154.868 170.821 155.801 170.97 156.815 170.97C157.931 170.97 158.924 170.795 159.794 170.446C160.672 170.088 161.362 169.594 161.865 168.963C162.368 168.324 162.619 167.578 162.619 166.726C162.619 165.95 162.397 165.315 161.954 164.821C161.52 164.327 160.927 163.918 160.177 163.594C159.436 163.27 158.596 162.984 157.659 162.737L154.565 161.893C152.468 161.322 150.806 160.483 149.579 159.375C148.36 158.267 147.751 156.801 147.751 154.977C147.751 153.469 148.16 152.152 148.978 151.027C149.797 149.902 150.904 149.028 152.302 148.406C153.7 147.776 155.277 147.46 157.032 147.46C158.805 147.46 160.369 147.771 161.724 148.393C163.088 149.016 164.162 149.872 164.946 150.963C165.73 152.045 166.139 153.29 166.173 154.696H162.363ZM174.767 162.341V174H170.945V147.818H174.716V157.56H174.959C175.419 156.503 176.122 155.663 177.068 155.041C178.014 154.419 179.25 154.108 180.776 154.108C182.122 154.108 183.298 154.385 184.304 154.939C185.318 155.493 186.102 156.32 186.656 157.419C187.219 158.51 187.5 159.874 187.5 161.51V174H183.678V161.97C183.678 160.53 183.307 159.413 182.565 158.621C181.824 157.82 180.793 157.419 179.472 157.419C178.568 157.419 177.759 157.611 177.043 157.994C176.335 158.378 175.777 158.94 175.368 159.682C174.967 160.415 174.767 161.301 174.767 162.341ZM200.872 174.396C199.031 174.396 197.425 173.974 196.053 173.131C194.68 172.287 193.615 171.107 192.857 169.589C192.098 168.072 191.719 166.3 191.719 164.271C191.719 162.234 192.098 160.453 192.857 158.928C193.615 157.402 194.68 156.217 196.053 155.374C197.425 154.53 199.031 154.108 200.872 154.108C202.713 154.108 204.32 154.53 205.692 155.374C207.064 156.217 208.129 157.402 208.888 158.928C209.646 160.453 210.026 162.234 210.026 164.271C210.026 166.3 209.646 168.072 208.888 169.589C208.129 171.107 207.064 172.287 205.692 173.131C204.32 173.974 202.713 174.396 200.872 174.396ZM200.885 171.188C202.078 171.188 203.067 170.872 203.851 170.241C204.635 169.611 205.214 168.771 205.589 167.723C205.973 166.675 206.165 165.52 206.165 164.259C206.165 163.006 205.973 161.855 205.589 160.807C205.214 159.75 204.635 158.902 203.851 158.263C203.067 157.624 202.078 157.304 200.885 157.304C199.683 157.304 198.686 157.624 197.893 158.263C197.109 158.902 196.526 159.75 196.142 160.807C195.767 161.855 195.58 163.006 195.58 164.259C195.58 165.52 195.767 166.675 196.142 167.723C196.526 168.771 197.109 169.611 197.893 170.241C198.686 170.872 199.683 171.188 200.885 171.188ZM214.292 181.364V154.364H218.025V157.547H218.345C218.566 157.138 218.886 156.665 219.304 156.128C219.721 155.591 220.301 155.122 221.042 154.722C221.784 154.312 222.764 154.108 223.983 154.108C225.568 154.108 226.983 154.509 228.227 155.31C229.471 156.111 230.447 157.266 231.154 158.774C231.87 160.283 232.228 162.098 232.228 164.22C232.228 166.342 231.875 168.162 231.167 169.679C230.46 171.187 229.488 172.351 228.252 173.169C227.017 173.979 225.606 174.384 224.021 174.384C222.828 174.384 221.852 174.183 221.093 173.783C220.343 173.382 219.755 172.913 219.329 172.376C218.903 171.839 218.575 171.362 218.345 170.945H218.115V181.364H214.292ZM218.038 164.182C218.038 165.562 218.238 166.773 218.639 167.812C219.039 168.852 219.619 169.666 220.377 170.254C221.136 170.834 222.065 171.124 223.164 171.124C224.306 171.124 225.261 170.821 226.028 170.216C226.795 169.602 227.375 168.771 227.767 167.723C228.167 166.675 228.368 165.494 228.368 164.182C228.368 162.886 228.172 161.723 227.779 160.692C227.396 159.661 226.816 158.847 226.041 158.25C225.274 157.653 224.315 157.355 223.164 157.355C222.056 157.355 221.119 157.641 220.352 158.212C219.593 158.783 219.018 159.58 218.626 160.602C218.234 161.625 218.038 162.818 218.038 164.182ZM248.557 174H244.364L253.786 147.818H258.349L267.771 174H263.578L256.176 152.574H255.972L248.557 174ZM249.26 163.747H262.862V167.071H249.26V163.747ZM271.552 174V147.818H280.885C282.922 147.818 284.609 148.189 285.947 148.93C287.285 149.672 288.287 150.686 288.951 151.973C289.616 153.251 289.949 154.692 289.949 156.294C289.949 157.905 289.612 159.354 288.939 160.641C288.274 161.919 287.268 162.933 285.922 163.683C284.583 164.425 282.9 164.795 280.872 164.795H274.454V161.446H280.514C281.801 161.446 282.845 161.224 283.646 160.781C284.447 160.33 285.035 159.716 285.41 158.94C285.785 158.165 285.973 157.283 285.973 156.294C285.973 155.305 285.785 154.428 285.41 153.661C285.035 152.893 284.443 152.293 283.633 151.858C282.832 151.423 281.775 151.206 280.463 151.206H275.502V174H271.552ZM298.53 147.818V174H294.58V147.818H298.53ZM320.854 174.384C319.269 174.384 317.854 173.979 316.61 173.169C315.374 172.351 314.402 171.187 313.695 169.679C312.996 168.162 312.647 166.342 312.647 164.22C312.647 162.098 313 160.283 313.708 158.774C314.424 157.266 315.404 156.111 316.648 155.31C317.892 154.509 319.303 154.108 320.88 154.108C322.098 154.108 323.078 154.312 323.82 154.722C324.57 155.122 325.15 155.591 325.559 156.128C325.976 156.665 326.3 157.138 326.53 157.547H326.76V147.818H330.583V174H326.85V170.945H326.53C326.3 171.362 325.968 171.839 325.533 172.376C325.107 172.913 324.519 173.382 323.769 173.783C323.019 174.183 322.047 174.384 320.854 174.384ZM321.698 171.124C322.797 171.124 323.726 170.834 324.485 170.254C325.252 169.666 325.831 168.852 326.223 167.812C326.624 166.773 326.824 165.562 326.824 164.182C326.824 162.818 326.628 161.625 326.236 160.602C325.844 159.58 325.269 158.783 324.51 158.212C323.752 157.641 322.814 157.355 321.698 157.355C320.547 157.355 319.588 157.653 318.821 158.25C318.054 158.847 317.475 159.661 317.083 160.692C316.699 161.723 316.507 162.886 316.507 164.182C316.507 165.494 316.703 166.675 317.096 167.723C317.488 168.771 318.067 169.602 318.834 170.216C319.61 170.821 320.564 171.124 321.698 171.124ZM344.501 174.396C342.567 174.396 340.901 173.983 339.503 173.156C338.114 172.321 337.04 171.149 336.281 169.641C335.531 168.124 335.156 166.347 335.156 164.31C335.156 162.298 335.531 160.526 336.281 158.991C337.04 157.457 338.097 156.26 339.452 155.399C340.815 154.538 342.409 154.108 344.233 154.108C345.341 154.108 346.415 154.291 347.455 154.658C348.494 155.024 349.428 155.599 350.254 156.384C351.081 157.168 351.733 158.186 352.21 159.439C352.688 160.683 352.926 162.196 352.926 163.977V165.332H337.317V162.469H349.18C349.18 161.463 348.976 160.572 348.567 159.797C348.158 159.013 347.582 158.395 346.841 157.943C346.108 157.491 345.247 157.266 344.259 157.266C343.185 157.266 342.247 157.53 341.446 158.058C340.653 158.578 340.04 159.26 339.605 160.104C339.179 160.939 338.966 161.847 338.966 162.827V165.064C338.966 166.376 339.196 167.493 339.656 168.413C340.125 169.334 340.777 170.037 341.612 170.523C342.447 171 343.423 171.239 344.54 171.239C345.264 171.239 345.925 171.136 346.521 170.932C347.118 170.719 347.634 170.403 348.068 169.986C348.503 169.568 348.835 169.053 349.065 168.439L352.683 169.091C352.393 170.156 351.874 171.089 351.124 171.891C350.382 172.683 349.449 173.301 348.324 173.744C347.207 174.179 345.933 174.396 344.501 174.396ZM357.167 174V154.364H360.836V157.56H361.079C361.488 156.477 362.157 155.634 363.086 155.028C364.015 154.415 365.127 154.108 366.423 154.108C367.735 154.108 368.835 154.415 369.721 155.028C370.616 155.642 371.277 156.486 371.703 157.56H371.907C372.376 156.511 373.122 155.676 374.145 155.054C375.167 154.423 376.386 154.108 377.801 154.108C379.582 154.108 381.035 154.666 382.16 155.783C383.294 156.899 383.86 158.582 383.86 160.832V174H380.038V161.19C380.038 159.861 379.676 158.898 378.951 158.301C378.227 157.705 377.362 157.406 376.356 157.406C375.112 157.406 374.145 157.79 373.454 158.557C372.764 159.315 372.419 160.291 372.419 161.484V174H368.609V160.947C368.609 159.882 368.277 159.026 367.612 158.378C366.947 157.73 366.082 157.406 365.017 157.406C364.292 157.406 363.623 157.598 363.01 157.982C362.404 158.357 361.914 158.881 361.539 159.554C361.173 160.227 360.99 161.007 360.99 161.893V174H357.167ZM397.255 174.396C395.414 174.396 393.808 173.974 392.435 173.131C391.063 172.287 389.998 171.107 389.239 169.589C388.481 168.072 388.102 166.3 388.102 164.271C388.102 162.234 388.481 160.453 389.239 158.928C389.998 157.402 391.063 156.217 392.435 155.374C393.808 154.53 395.414 154.108 397.255 154.108C399.096 154.108 400.702 154.53 402.075 155.374C403.447 156.217 404.512 157.402 405.271 158.928C406.029 160.453 406.408 162.234 406.408 164.271C406.408 166.3 406.029 168.072 405.271 169.589C404.512 171.107 403.447 172.287 402.075 173.131C400.702 173.974 399.096 174.396 397.255 174.396ZM397.268 171.188C398.461 171.188 399.45 170.872 400.234 170.241C401.018 169.611 401.597 168.771 401.972 167.723C402.356 166.675 402.548 165.52 402.548 164.259C402.548 163.006 402.356 161.855 401.972 160.807C401.597 159.75 401.018 158.902 400.234 158.263C399.45 157.624 398.461 157.304 397.268 157.304C396.066 157.304 395.069 157.624 394.276 158.263C393.492 158.902 392.908 159.75 392.525 160.807C392.15 161.855 391.962 163.006 391.962 164.259C391.962 165.52 392.15 166.675 392.525 167.723C392.908 168.771 393.492 169.611 394.276 170.241C395.069 170.872 396.066 171.188 397.268 171.188Z" fill="#FCFCFC"/>
</g>
<defs>
<filter id="filter0_f_3016_4091" x="-88.7158" y="-375.049" width="1589.68" height="975.59" filterUnits="userSpaceOnUse" color-interpolation-filters="sRGB">
<feFlood flood-opacity="0" result="BackgroundImageFix"/>
<feBlend mode="normal" in="SourceGraphic" in2="BackgroundImageFix" result="shape"/>
<feGaussianBlur stdDeviation="150" result="effect1_foregroundBlur_3016_4091"/>
</filter>
<filter id="filter1_f_3016_4091" x="608" y="-57" width="1238" height="1128" filterUnits="userSpaceOnUse" color-interpolation-filters="sRGB">
<feFlood flood-opacity="0" result="BackgroundImageFix"/>
<feBlend mode="normal" in="SourceGraphic" in2="BackgroundImageFix" result="shape"/>
<feGaussianBlur stdDeviation="110" result="effect1_foregroundBlur_3016_4091"/>
</filter>
<filter id="filter2_f_3016_4091" x="-800" y="-800" width="1234" height="1234" filterUnits="userSpaceOnUse" color-interpolation-filters="sRGB">
<feFlood flood-opacity="0" result="BackgroundImageFix"/>
<feBlend mode="normal" in="SourceGraphic" in2="BackgroundImageFix" result="shape"/>
<feGaussianBlur stdDeviation="125" result="effect1_foregroundBlur_3016_4091"/>
</filter>
<linearGradient id="paint0_linear_3016_4091" x1="1023.23" y1="59.6703" x2="1071.37" y2="56.9658" gradientUnits="userSpaceOnUse">
<stop stop-color="#0586FD"/>
<stop offset="0.88" stop-color="#111FFF"/>
</linearGradient>
<linearGradient id="paint1_linear_3016_4091" x1="990.031" y1="84.277" x2="1042.16" y2="7.16322" gradientUnits="userSpaceOnUse">
<stop stop-color="#0586FD"/>
<stop offset="0.88" stop-color="#111FFF"/>
</linearGradient>
<linearGradient id="paint2_linear_3016_4091" x1="992.557" y1="90.2196" x2="1061.97" y2="32.7367" gradientUnits="userSpaceOnUse">
<stop stop-color="#0586FD"/>
<stop offset="0.88" stop-color="#111FFF"/>
</linearGradient>
<linearGradient id="paint3_linear_3016_4091" x1="1006.62" y1="91.753" x2="1058.09" y2="45.1602" gradientUnits="userSpaceOnUse">
<stop stop-color="#0586FD"/>
<stop offset="0.88" stop-color="#111FFF"/>
</linearGradient>
<linearGradient id="paint4_linear_3016_4091" x1="1021.11" y1="63.3363" x2="1040.6" y2="24.9083" gradientUnits="userSpaceOnUse">
<stop stop-color="#0586FD"/>
<stop offset="0.88" stop-color="#111FFF"/>
</linearGradient>
<linearGradient id="paint5_linear_3016_4091" x1="965.111" y1="89.4959" x2="1058.67" y2="22.0912" gradientUnits="userSpaceOnUse">
<stop stop-color="#0586FD"/>
<stop offset="0.88" stop-color="#111FFF"/>
</linearGradient>
<clipPath id="clip0_3016_4091">
<path d="M0 20C0 8.9543 8.95431 0 20 0H1260C1271.05 0 1280 8.95431 1280 20V205C1280 216.046 1271.05 225 1260 225H20C8.95431 225 0 216.046 0 205V20Z" fill="white"/>
</clipPath>
<clipPath id="clip1_3016_4091">
<rect width="236.364" height="40" fill="white" transform="translate(995 40)"/>
</clipPath>
</defs>
</svg>
